GIL12_xslow1_ik
nRows=3
nColumns=375

# SIMM Motion File Header:
name GIL12_xslow1_ik
datacolumns 375
datarows 3
otherdata 1
range 0.15833000 0.17500000
endheader
time	pelvis_tx	pelvis_ty	pelvis_tz	pelvis_tilt	pelvis_list	pelvis_rotation	hip_flexion_r	hip_adduction_r	hip_rotation_r	knee_angle_r	ankle_angle_r	hip_flexion_l	hip_adduction_l	hip_rotation_l	knee_angle_l	ankle_angle_l	lumbar_extension	lumbar_bending	lumbar_rotation	subtalar_angle_r	mtp_angle_r	subtalar_angle_l	mtp_angle_l	asis_r_px	asis_r_py	asis_r_pz	asis_l_px	asis_l_py	asis_l_pz	midasis_px	midasis_py	midasis_pz	psis_r_px	psis_r_py	psis_r_pz	psis_l_px	psis_l_py	psis_l_pz	hip_r_px	hip_r_py	hip_r_pz	hip_l_px	hip_l_py	hip_l_pz	midhip_px	midhip_py	midhip_pz	epicondLat_r_px	epicondLat_r_py	epicondLat_r_pz	epicondMed_r_px	epicondMed_r_py	epicondMed_r_pz	thighwand_r_px	thighwand_r_py	thighwand_r_pz	upperleg1_r_px	upperleg1_r_py	upperleg1_r_pz	upperleg2_r_px	upperleg2_r_py	upperleg2_r_pz	malleolusLat_r_px	malleolusLat_r_py	malleolusLat_r_pz	malleolusMedv_r_px	malleolusMedv_r_py	malleolusMedv_r_pz	shankwand_r_px	shankwand_r_py	shankwand_r_pz	lowerleg1_r_px	lowerleg1_r_py	lowerleg1_r_pz	knee_r_px	knee_r_py	knee_r_pz	ankle_r_px	ankle_r_py	ankle_r_pz	toe_r_px	toe_r_py	toe_r_pz	epicondLat_l_px	epicondLat_l_py	epicondLat_l_pz	epicondMed_l_px	epicondMed_l_py	epicondMed_l_pz	thighwand_l_px	thighwand_l_py	thighwand_l_pz	upperleg1_l_px	upperleg1_l_py	upperleg1_l_pz	upperleg2_l_px	upperleg2_l_py	upperleg2_l_pz	malleolusLat_l_px	malleolusLat_l_py	malleolusLat_l_pz	malleolusMedv_l_px	malleolusMedv_l_py	malleolusMedv_l_pz	shankwand_l_px	shankwand_l_py	shankwand_l_pz	lowerleg1_l_px	lowerleg1_l_py	lowerleg1_l_pz	knee_l_px	knee_l_py	knee_l_pz	ankle_l_px	ankle_l_py	ankle_l_pz	toe_l_px	toe_l_py	toe_l_pz	subclavicle_r_px	subclavicle_r_py	subclavicle_r_pz	subclavicle_l_px	subclavicle_l_py	subclavicle_l_pz	neck_px	neck_py	neck_pz	sternalnotch_px	sternalnotch_py	sternalnotch_pz	xyphoidprocess_px	xyphoidprocess_py	xyphoidprocess_pz	midhip_tx	midhip_ty	midhip_tz	hip_r_tx	hip_r_ty	hip_r_tz	hip_l_tx	hip_l_ty	hip_l_tz	knee_r_tx	knee_r_ty	knee_r_tz	knee_l_tx	knee_l_ty	knee_l_tz	ankle_r_tx	ankle_r_ty	ankle_r_tz	ankle_l_tx	ankle_l_ty	ankle_l_tz	midasis_tx	midasis_ty	midasis_tz	asis_r_tx	asis_r_ty	asis_r_tz	asis_l_tx	asis_l_ty	asis_l_tz	psis_r_tx	psis_r_ty	psis_r_tz	psis_l_tx	psis_l_ty	psis_l_tz	epicondLat_r_tx	epicondLat_r_ty	epicondLat_r_tz	epicondLat_l_tx	epicondLat_l_ty	epicondLat_l_tz	epicondMed_r_tx	epicondMed_r_ty	epicondMed_r_tz	epicondMed_l_tx	epicondMed_l_ty	epicondMed_l_tz	malleolusLat_r_tx	malleolusLat_r_ty	malleolusLat_r_tz	malleolusLat_l_tx	malleolusLat_l_ty	malleolusLat_l_tz	malleolusMedv_r_tx	malleolusMedv_r_ty	malleolusMedv_r_tz	malleolusMedv_l_tx	malleolusMedv_l_ty	malleolusMedv_l_tz	neck_tx	neck_ty	neck_tz	subclavicle_r_tx	subclavicle_r_ty	subclavicle_r_tz	subclavicle_l_tx	subclavicle_l_ty	subclavicle_l_tz	sternalnotch_tx	sternalnotch_ty	sternalnotch_tz	xyphoidprocess_tx	xyphoidprocess_ty	xyphoidprocess_tz	thighwand_r_tx	thighwand_r_ty	thighwand_r_tz	thighwand_l_tx	thighwand_l_ty	thighwand_l_tz	upperleg1_r_tx	upperleg1_r_ty	upperleg1_r_tz	upperleg1_l_tx	upperleg1_l_ty	upperleg1_l_tz	upperleg2_r_tx	upperleg2_r_ty	upperleg2_r_tz	upperleg2_l_tx	upperleg2_l_ty	upperleg2_l_tz	shankwand_r_tx	shankwand_r_ty	shankwand_r_tz	shankwand_l_tx	shankwand_l_ty	shankwand_l_tz	lowerleg1_r_tx	lowerleg1_r_ty	lowerleg1_r_tz	lowerleg1_l_tx	lowerleg1_l_ty	lowerleg1_l_tz	toe_r_tx	toe_r_ty	toe_r_tz	toe_l_tx	toe_l_ty	toe_l_tz	ground_force_vx	ground_force_vy	ground_force_vz	ground_force_px	ground_force_py	ground_force_pz	ground_force_vx	ground_force_vy	ground_force_vz	ground_force_px	ground_force_py	ground_force_pz	ground_torque_x	ground_torque_y	ground_torque_z	ground_torque_x	ground_torque_y	ground_torque_z	ground_marker_px	ground_marker_py	ground_marker_pz	ground_marker_px	ground_marker_py	ground_marker_pz	ground_marker_px	ground_marker_py	ground_marker_pz	ground_marker_px	ground_marker_py	ground_marker_pz	ground_marker_px	ground_marker_py	ground_marker_pz	ground_marker_px	ground_marker_py	ground_marker_pz	ground_marker_px	ground_marker_py	ground_marker_pz	ground_marker_px	ground_marker_py	ground_marker_pz	ground_marker_px	ground_marker_py	ground_marker_pz	ground_marker_px	ground_marker_py	ground_marker_pz	ground_marker_px	ground_marker_py	ground_marker_pz	ground_marker_px	ground_marker_py	ground_marker_pz	ground_marker_px	ground_marker_py	ground_marker_pz	ground_marker_px	ground_marker_py	ground_marker_pz	ground_marker_px	ground_marker_py	ground_marker_pz	ground_marker_px	ground_marker_py	ground_marker_pz	ground_marker_px	ground_marker_py	ground_marker_pz	ground_marker_px	ground_marker_py	ground_marker_pz	ground_marker_px	ground_marker_py	ground_marker_pz	ground_marker_px	ground_marker_py	ground_marker_pz	ground_marker_px	ground_marker_py	ground_marker_pz	ground_marker_px	ground_marker_py	ground_marker_pz	ground_marker_px	ground_marker_py	ground_marker_pz	ground_marker_px	ground_marker_py	ground_marker_pz	ground_marker_px	ground_marker_py	ground_marker_pz	ground_marker_px	ground_marker_py	ground_marker_pz	ground_marker_px	ground_marker_py	ground_marker_pz	ground_marker_px	ground_marker_py	ground_marker_pz	ground_marker_px	ground_marker_py	ground_marker_pz	ground_marker_px	ground_marker_py	ground_marker_pz	ground_marker_px	ground_marker_py	ground_marker_pz	ground_marker_px	ground_marker_py	ground_marker_pz	ground_marker_px	ground_marker_py	ground_marker_pz	ground_marker_px	ground_marker_py	ground_marker_pz	ground_marker_px	ground_marker_py	ground_marker_pz	ground_marker_px	ground_marker_py	ground_marker_pz	ground_marker_px	ground_marker_py	ground_marker_pz
      0.15833000	      1.42638890	      0.68208516	     -0.16239801	     10.31786505	      3.82213970	    -15.70687601	    -19.48906637	    -13.55490045	    -15.12118149	    -35.95636739	    -26.07081078	      7.87945115	      3.44882429	    -14.96180154	    -15.16579201	     -1.54454713	    -18.05011986	    -15.14628080	      5.06271163	      0.00000000	      0.00000000	      0.00000000	      0.00000000	      1.51725676	      0.67227763	     -0.07332837	      1.56590279	      0.69218410	     -0.23966359	      1.43546803	      0.68356281	     -0.15981742	      1.40281425	      0.72644452	     -0.14609993	      1.42621497	      0.73536905	     -0.22764449	      1.37407906	      0.62398372	     -0.12370543	      1.40312175	      0.63670422	     -0.23316822	      1.38860041	      0.63034397	     -0.17843683	      1.33918586	      0.31688311	     -0.03744264	      1.38075415	      0.29716248	     -0.11897491	      1.49829321	      0.35962960	     -0.03968267	      1.43018244	      0.43656862	     -0.04083201	      1.39529886	      0.35594339	     -0.04074605	      1.09560769	      0.11772699	     -0.11461286	      1.12700931	      0.09424591	     -0.16149216	      1.14488169	      0.16804844	     -0.02699247	      1.21023588	      0.19612053	     -0.07421347	      1.31270021	      0.32535291	     -0.09975005	      1.11785934	      0.12150133	     -0.16285519	      1.10501671	      0.01467359	     -0.11965055	      1.54671252	      0.34647786	     -0.29377185	      1.55250766	      0.34896229	     -0.20188482	      1.58910375	      0.42963877	     -0.35308028	      1.57418433	      0.49307490	     -0.27517572	      1.59035334	      0.41218832	     -0.25458938	      1.51630024	      0.04592965	     -0.27889873	      1.53768140	      0.04246291	     -0.21725914	      1.63259455	      0.14776086	     -0.23419507	      1.57112431	      0.20648891	     -0.25002077	      1.49009106	      0.34601002	     -0.22444587	      1.49907995	      0.05725998	     -0.21786594	      1.61395307	      0.01913659	     -0.27379065	      1.43443392	      1.01652482	     -0.16377809	      1.44841864	      1.01087198	     -0.25118620	      1.34068704	      1.01341020	     -0.22033989	      1.42087616	      1.01585627	     -0.20306298	      1.53441761	      0.93247054	     -0.18473214	      1.39825600	      0.62066900	     -0.19013800	      1.38682100	      0.62948900	     -0.13421900	      1.42045500	      0.63754500	     -0.24645600	      1.32521200	      0.33336100	     -0.10639300	      1.50418300	      0.34673500	     -0.22078800	      1.10072600	      0.13310400	     -0.12380200	      1.50943100	      0.05519600	     -0.22798700	      1.43998200	      0.69860700	     -0.17477500	      1.41451400	      0.69250800	     -0.08978800	      1.46545000	      0.70470700	     -0.25976200	      1.29914100	      0.70541000	     -0.17288000	      1.32248200	      0.70507800	     -0.25437500	      1.30250400	      0.34176100	     -0.06728000	      1.50702800	      0.34333500	     -0.26858300	      1.34597600	      0.32049000	     -0.14994500	      1.49056600	      0.34719800	     -0.17658400	      1.09036900	      0.14205700	     -0.09322800	      1.50315800	      0.05587000	     -0.25986800	      1.10638800	      0.13792200	     -0.15149700	      1.50344000	      0.05652100	     -0.19452000	      1.33315700	      1.02661300	     -0.22493100	      1.42369100	      0.97420300	     -0.15691100	      1.43957600	      0.96679500	     -0.24613200	      1.41415300	      0.98205200	     -0.19739400	      1.47185400	      0.85316800	     -0.18199400	      1.45829900	      0.39240200	     -0.07151200	      1.55130400	      0.43230900	     -0.32401800	      1.38755600	      0.46072100	     -0.07141300	      1.52444900	      0.48961600	     -0.24919500	      1.35846600	      0.38145600	     -0.07126600	      1.53681100	      0.40931000	     -0.22418200	      1.15255200	      0.18993300	     -0.01788900	      1.59648900	      0.16821900	     -0.19335800	      1.20407900	      0.23479000	     -0.07501100	      1.53501500	      0.22054100	     -0.21840800	      1.11627900	      0.04877900	     -0.13171300	      1.59419800	      0.03762900	     -0.21776200	      0.00000000	      0.00000000	      0.00000000	      1.83020972	      0.00000000	     -0.08609085	    -30.83046247	    243.71704029	     12.00881635	      1.51954431	      0.00000000	     -0.23290541	      0.00000000	      0.00000000	      0.00000000	      0.00000000	      1.28500464	      0.00000000	      1.39825630	      0.62066901	     -0.19013813	      1.38682103	      0.62948918	     -0.13421865	      1.42045474	      0.63754457	     -0.24645594	      1.32521164	      0.33336142	     -0.10639322	      1.50418305	      0.34673458	     -0.22078812	      1.10072649	      0.13310382	     -0.12380238	      1.50943077	      0.05519614	     -0.22798651	      1.43998218	      0.69860721	     -0.17477459	      1.41451442	      0.69250762	     -0.08978751	      1.46544981	      0.70470685	     -0.25976166	      1.29914117	      0.70540988	     -0.17288016	      1.32248199	      0.70507807	     -0.25437495	      1.30250394	      0.34176096	     -0.06728049	      1.50702786	      0.34333509	     -0.26858300	      1.34597600	      0.32049015	     -0.14994489	      1.49056578	      0.34719804	     -0.17658365	      1.09036863	      0.14205678	     -0.09322771	      1.50315821	      0.05587043	     -0.25986832	      1.10638845	      0.13792159	     -0.15149745	      1.50344002	      0.05652081	     -0.19452031	      1.33315718	      1.02661335	     -0.22493117	      1.42369139	      0.97420299	     -0.15691067	      1.43957639	      0.96679485	     -0.24613222	      1.41415286	      0.98205215	     -0.19739385	      1.47185361	      0.85316789	     -0.18199441	      1.45829928	      0.39240155	     -0.07151164	      1.55130434	      0.43230939	     -0.32401815	      1.38755596	      0.46072131	     -0.07141270	      1.52444863	      0.48961625	     -0.24919477	      1.35846579	      0.38145557	     -0.07126618	      1.53681064	      0.40931019	     -0.22418226	      1.15255153	      0.18993321	     -0.01788871	      1.59648883	      0.16821948	     -0.19335829	      1.20407891	      0.23478964	     -0.07501125	      1.53501463	      0.22054148	     -0.21840817	      1.11627948	      0.04877940	     -0.13171338	      1.59419811	      0.03762913	     -0.21776155
      0.16667000	      1.43102790	      0.68341907	     -0.16257229	     10.32217871	      3.75509880	    -15.90747899	    -18.13999177	    -13.77273465	    -15.73189726	    -38.20018748	    -24.93589112	      7.13405547	      3.62791706	    -14.70177901	    -14.63896221	     -1.34254248	    -17.99954386	    -15.36266613	      5.40248604	      0.00000000	      0.00000000	      0.00000000	      0.00000000	      1.52156882	      0.67364427	     -0.07316674	      1.57082421	      0.69345576	     -0.23933388	      1.44009780	      0.68489667	     -0.15995938	      1.40740095	      0.72779065	     -0.14638358	      1.43110027	      0.73666869	     -0.22784693	      1.37856820	      0.62534609	     -0.12404022	      1.40801185	      0.63800455	     -0.23340304	      1.39329002	      0.63167532	     -0.17872163	      1.34914486	      0.31860319	     -0.03452681	      1.39245638	      0.29883899	     -0.11513590	      1.50727423	      0.36489003	     -0.03476831	      1.43749124	      0.44025692	     -0.03795837	      1.40441845	      0.35887385	     -0.03742346	      1.10451998	      0.12040195	     -0.11818597	      1.13669311	      0.09682364	     -0.16448980	      1.15239210	      0.16963585	     -0.02918154	      1.21911360	      0.19720930	     -0.07475545	      1.32362098	      0.32537351	     -0.09720999	      1.12789341	      0.12419210	     -0.16589364	      1.11454570	      0.01760621	     -0.12224701	      1.54815385	      0.34595406	     -0.29331279	      1.55329843	      0.34825174	     -0.20138219	      1.59209352	      0.42861030	     -0.35219823	      1.57744529	      0.49214805	     -0.27432502	      1.59237731	      0.41102792	     -0.25372328	      1.51626694	      0.04603933	     -0.27896611	      1.53718714	      0.04242493	     -0.21717701	      1.63266069	      0.14733944	     -0.23332443	      1.57155313	      0.20633984	     -0.24953693	      1.49092246	      0.34617576	     -0.22441291	      1.49865343	      0.05738447	     -0.21804838	      1.61386096	      0.01924193	     -0.27326770	      1.43941966	      1.01783249	     -0.16541720	      1.45316900	      1.01188246	     -0.25284293	      1.34552134	      1.01461490	     -0.22172144	      1.42575780	      1.01704761	     -0.20466385	      1.53927538	      0.93362345	     -0.18636007	      1.40343000	      0.62166000	     -0.19097400	      1.39157700	      0.63051800	     -0.13515300	      1.42563200	      0.63850600	     -0.24726800	      1.33651700	      0.33341600	     -0.10447800	      1.50534700	      0.34676100	     -0.22133200	      1.10926800	      0.13655700	     -0.12531700	      1.50949200	      0.05518600	     -0.22823300	      1.44486700	      0.69962600	     -0.17555700	      1.41907000	      0.69357500	     -0.09062900	      1.47066400	      0.70567700	     -0.26048500	      1.30408300	      0.70620500	     -0.17389400	      1.32757900	      0.70613100	     -0.25536100	      1.31298500	      0.34176600	     -0.06584400	      1.50853900	      0.34338600	     -0.26910700	      1.35748400	      0.32172600	     -0.14913900	      1.49167200	      0.34798900	     -0.17654500	      1.09857600	      0.14568000	     -0.09490800	      1.50317900	      0.05585100	     -0.26010700	      1.11524800	      0.14157000	     -0.15291700	      1.50347500	      0.05674000	     -0.19475100	      1.33781700	      1.02777600	     -0.22630900	      1.42883400	      0.97580000	     -0.15840900	      1.44435700	      0.96808300	     -0.24758200	      1.41910900	      0.98340400	     -0.19891000	      1.47717000	      0.85478200	     -0.18317000	      1.46765100	      0.39521300	     -0.06808900	      1.55437700	      0.43217400	     -0.32415600	      1.40114500	      0.46278100	     -0.06982300	      1.52738400	      0.48993400	     -0.24913300	      1.36866800	      0.38092300	     -0.07031000	      1.53887500	      0.40967000	     -0.22381100	      1.16009900	      0.19247500	     -0.01849600	      1.59708900	      0.16776600	     -0.19382300	      1.21306700	      0.23676600	     -0.07472500	      1.53578900	      0.22057800	     -0.21900100	      1.12465000	      0.05166300	     -0.13009600	      1.59410600	      0.03761400	     -0.21775400	      0.00000000	      0.00000000	      0.00000000	      1.83106714	      0.00000000	     -0.08670227	    -30.51750469	    243.19774435	     11.49492772	      1.52089148	      0.00000000	     -0.23297647	      0.00000000	      0.00000000	      0.00000000	      0.00000000	      1.33568359	      0.00000000	      1.40342975	      0.62165987	     -0.19097418	      1.39157736	      0.63051784	     -0.13515322	      1.42563200	      0.63850582	     -0.24726832	      1.33651662	      0.33341590	     -0.10447764	      1.50534749	      0.34676084	     -0.22133221	      1.10926771	      0.13655691	     -0.12531672	      1.50949240	      0.05518613	     -0.22823331	      1.44486701	      0.69962597	     -0.17555694	      1.41907036	      0.69357502	     -0.09062865	      1.47066367	      0.70567691	     -0.26048523	      1.30408275	      0.70620537	     -0.17389371	      1.32757902	      0.70613098	     -0.25536108	      1.31298530	      0.34176576	     -0.06584399	      1.50853884	      0.34338561	     -0.26910692	      1.35748363	      0.32172593	     -0.14913882	      1.49167192	      0.34798878	     -0.17654529	      1.09857595	      0.14568023	     -0.09490784	      1.50317872	      0.05585078	     -0.26010719	      1.11524844	      0.14157020	     -0.15291731	      1.50347519	      0.05673968	     -0.19475076	      1.33781660	      1.02777600	     -0.22630937	      1.42883372	      0.97579974	     -0.15840885	      1.44435656	      0.96808255	     -0.24758212	      1.41910887	      0.98340434	     -0.19890974	      1.47716975	      0.85478246	     -0.18317011	      1.46765149	      0.39521274	     -0.06808872	      1.55437672	      0.43217373	     -0.32415634	      1.40114450	      0.46278113	     -0.06982321	      1.52738369	      0.48993447	     -0.24913310	      1.36866772	      0.38092327	     -0.07030956	      1.53887534	      0.40966967	     -0.22381057	      1.16009879	      0.19247496	     -0.01849581	      1.59708893	      0.16776621	     -0.19382258	      1.21306717	      0.23676601	     -0.07472537	      1.53578925	      0.22057803	     -0.21900111	      1.12464976	      0.05166305	     -0.13009569	      1.59410632	      0.03761448	     -0.21775392
      0.17500000	      1.43558457	      0.68471416	     -0.16272761	     10.34751482	      3.67236811	    -16.06922426	    -16.80090788	    -13.93339111	    -16.21059829	    -40.47721874	    -22.79496551	      6.33532903	      3.82629132	    -14.02231204	    -14.03431805	     -1.22368740	    -17.97828239	    -15.54446552	      5.69231468	      0.00000000	      0.00000000	      0.00000000	      0.00000000	      1.52585664	      0.67504474	     -0.07303919	      1.57561026	      0.69471708	     -0.23907438	      1.44464612	      0.68619651	     -0.16008858	      1.41189721	      0.72909437	     -0.14665120	      1.43584101	      0.73790406	     -0.22805045	      1.38302331	      0.62666277	     -0.12430153	      1.41279499	      0.63922887	     -0.23358617	      1.39790915	      0.63294582	     -0.17894385	      1.35935336	      0.32032851	     -0.03173455	      1.40418802	      0.30067489	     -0.11153383	      1.51638160	      0.37020617	     -0.03039916	      1.44495752	      0.44392155	     -0.03536440	      1.41373395	      0.36181576	     -0.03435114	      1.11369847	      0.12321614	     -0.12165277	      1.14651679	      0.09963065	     -0.16749789	      1.16034615	      0.17119258	     -0.03132138	      1.22827359	      0.19834792	     -0.07533826	      1.33466532	      0.32546515	     -0.09467925	      1.13806009	      0.12710937	     -0.16885509	      1.12579147	      0.02102928	     -0.12368613	      1.54973715	      0.34543926	     -0.29238210	      1.55363952	      0.34742312	     -0.20038310	      1.59561654	      0.42763911	     -0.35042095	      1.58076380	      0.49116621	     -0.27257780	      1.59429598	      0.40979438	     -0.25200166	      1.51659234	      0.04619158	     -0.27918583	      1.53665756	      0.04236912	     -0.21712629	      1.63267397	      0.14701432	     -0.23172841	      1.57198004	      0.20624677	     -0.24863376	      1.49145798	      0.34628210	     -0.22428407	      1.49818687	      0.05745378	     -0.21848725	      1.61407032	      0.01931060	     -0.27227315	      1.44425083	      1.01906951	     -0.16693874	      1.45778958	      1.01283833	     -0.25437775	      1.35021763	      1.01574618	     -0.22301127	      1.43049586	      1.01817295	     -0.20615046	      1.54399573	      0.93472275	     -0.18785551	      1.40851200	      0.62259600	     -0.19173400	      1.39625500	      0.63151600	     -0.13601100	      1.43064100	      0.63942000	     -0.24803100	      1.34786900	      0.33366900	     -0.10257000	      1.50614600	      0.34673900	     -0.22187400	      1.11802700	      0.14015900	     -0.12700200	      1.50955900	      0.05518400	     -0.22847700	      1.44962000	      0.70062100	     -0.17632000	      1.42355200	      0.69462900	     -0.09139800	      1.47568800	      0.70661300	     -0.26124200	      1.30885900	      0.70693400	     -0.17476500	      1.33242000	      0.70710100	     -0.25618400	      1.32363300	      0.34189700	     -0.06434800	      1.50998300	      0.34346300	     -0.26960800	      1.37329600	      0.31934800	     -0.14657900	      1.49280700	      0.34811400	     -0.17707800	      1.10713400	      0.14926700	     -0.09666000	      1.50320300	      0.05583200	     -0.26034300	      1.12474400	      0.14503000	     -0.15424000	      1.50361700	      0.05694100	     -0.19499400	      1.34241200	      1.02880700	     -0.22761500	      1.43375100	      0.97724800	     -0.15977600	      1.44894300	      0.96924400	     -0.24893100	      1.42389200	      0.98464900	     -0.20028000	      1.48220400	      0.85623000	     -0.18426300	      1.47706300	      0.39822300	     -0.06504400	      1.55775900	      0.43231000	     -0.32392400	      1.40416200	      0.46376600	     -0.06880300	      1.52988200	      0.49039000	     -0.24830200	      1.37872500	      0.38112600	     -0.06851900	      1.54083600	      0.40998000	     -0.22327100	      1.16825500	      0.19458600	     -0.01918900	      1.59761000	      0.16739500	     -0.19426500	      1.22271600	      0.23865500	     -0.07449900	      1.53659600	      0.22060200	     -0.21952900	      1.13438500	      0.05492400	     -0.12792800	      1.59403400	      0.03759800	     -0.21777900	      0.00000000	      0.00000000	      0.00000000	      1.83192505	      0.00000000	     -0.08730621	    -30.54145083	    243.17357859	     11.21934754	      1.52252954	      0.00000000	     -0.23309816	      0.00000000	      0.00000000	      0.00000000	      0.00000000	      1.38304590	      0.00000000	      1.40851188	      0.62259591	     -0.19173440	      1.39625514	      0.63151580	     -0.13601069	      1.43064070	      0.63941997	     -0.24803068	      1.34786928	      0.33366850	     -0.10256954	      1.50614560	      0.34673870	     -0.22187439	      1.11802733	      0.14015891	     -0.12700231	      1.50955939	      0.05518437	     -0.22847706	      1.44962013	      0.70062089	     -0.17632005	      1.42355239	      0.69462878	     -0.09139762	      1.47568786	      0.70661306	     -0.26124248	      1.30885875	      0.70693421	     -0.17476481	      1.33241987	      0.70710111	     -0.25618407	      1.32363272	      0.34189713	     -0.06434813	      1.50998294	      0.34346277	     -0.26960847	      1.37329650	      0.31934837	     -0.14657931	      1.49280691	      0.34811398	     -0.17707814	      1.10713375	      0.14926663	     -0.09666040	      1.50320292	      0.05583159	     -0.26034281	      1.12474418	      0.14503042	     -0.15423998	      1.50361669	      0.05694133	     -0.19499353	      1.34241176	      1.02880728	     -0.22761534	      1.43375146	      0.97724807	     -0.15977581	      1.44894278	      0.96924359	     -0.24893080	      1.42389226	      0.98464918	     -0.20027965	      1.48220408	      0.85623038	     -0.18426347	      1.47706294	      0.39822260	     -0.06504396	      1.55775893	      0.43231046	     -0.32392418	      1.40416241	      0.46376565	     -0.06880323	      1.52988195	      0.49038982	     -0.24830210	      1.37872469	      0.38112646	     -0.06851873	      1.54083645	      0.40998018	     -0.22327125	      1.16825521	      0.19458584	     -0.01918922	      1.59760964	      0.16739483	     -0.19426550	      1.22271645	      0.23865473	     -0.07449922	      1.53659618	      0.22060156	     -0.21952866	      1.13438463	      0.05492350	     -0.12792790	      1.59403419	      0.03759752	     -0.21777904
